<svg xmlns="http://www.w3.org/2000/svg" width="28" height="38" viewBox="0 0 28 38" fill="none">
  <path d="M16.2276 1.92503L6.40565 19.0317C3.87326 23.4423 7.00252 28.9522 12.0877 29.0366C15.7763 29.0977 18.8162 26.1571 18.8773 22.4685L19.2045 2.74536C19.2191 1.86492 18.5172 1.13934 17.6367 1.12474C17.0564 1.11511 16.5166 1.42165 16.2276 1.92503Z" fill="white"/>
  <path d="M24.4586 2.07237L14.6366 19.179C12.1042 23.5896 15.2335 29.0995 20.3187 29.1839C24.0073 29.2451 27.0471 26.3044 27.1083 22.6158L27.4354 2.8927C27.45 2.01226 26.7481 1.28669 25.8677 1.27208C25.2873 1.26246 24.7476 1.56899 24.4586 2.07237Z" fill="white"/>
  <g filter="url(#filter0_d_8_12)">
    <path d="M16.069 8L10 18.5L17.2069 14.6111L17.5862 22L21 15.7778" stroke="black" stroke-width="3" stroke-linecap="round" stroke-linejoin="round"/>
  </g>
  <circle cx="16" cy="34" r="4" fill="white"/>
  <defs>
    <filter id="filter0_d_8_12" x="4.49997" y="6.49976" width="22.0003" height="25.0004" filterUnits="userSpaceOnUse" color-interpolation-filters="sRGB">
      <feFlood flood-opacity="0" result="BackgroundImageFix"/>
      <feColorMatrix in="SourceAlpha" type="matrix" values="0 0 0 0 0 0 0 0 0 0 0 0 0 0 0 0 0 0 127 0" result="hardAlpha"/>
      <feOffset dy="4"/>
      <feGaussianBlur stdDeviation="2"/>
      <feComposite in2="hardAlpha" operator="out"/>
      <feColorMatrix type="matrix" values="0 0 0 0 0 0 0 0 0 0 0 0 0 0 0 0 0 0 0.25 0"/>
      <feBlend mode="normal" in2="BackgroundImageFix" result="effect1_dropShadow_8_12"/>
      <feBlend mode="normal" in="SourceGraphic" in2="effect1_dropShadow_8_12" result="shape"/>
    </filter>
  </defs>
</svg>